<svg xmlns="http://www.w3.org/2000/svg" width="24" height="35" viewBox="0 0 24 35">
  <metadata><?xpacket begin="﻿" id="W5M0MpCehiHzreSzNTczkc9d"?>
<x:xmpmeta xmlns:x="adobe:ns:meta/" x:xmptk="Adobe XMP Core 5.6-c142 79.160924, 2017/07/13-01:06:39        ">
   <rdf:RDF xmlns:rdf="http://www.w3.org/1999/02/22-rdf-syntax-ns#">
      <rdf:Description rdf:about=""/>
   </rdf:RDF>
</x:xmpmeta>
                                                                                                    
                                                                                                    
                                                                                                    
                                                                                                    
                                                                                                    
                                                                                                    
                                                                                                    
                                                                                                    
                                                                                                    
                                                                                                    
                                                                                                    
                                                                                                    
                                                                                                    
                                                                                                    
                                                                                                    
                                                                                                    
                                                                                                    
                                                                                                    
                                                                                                    
                                                                                                    
                           
<?xpacket end="w"?></metadata>
<defs>
    <style>
      .cls-1 {
        fill: #fff;
        fill-rule: evenodd;
      }
    </style>
  </defs>
  <path id="Scroll" class="cls-1" d="M639,3023h2a11,11,0,0,1,11,11v13a11,11,0,0,1-11,11h-2a11,11,0,0,1-11-11v-13A11,11,0,0,1,639,3023Zm0.5,3h1a8.5,8.5,0,0,1,8.5,8.5v12a8.5,8.5,0,0,1-8.5,8.5h-1a8.5,8.5,0,0,1-8.5-8.5v-12A8.5,8.5,0,0,1,639.5,3026Zm0,5h1a1.5,1.5,0,0,1,1.5,1.5v2a1.5,1.5,0,0,1-1.5,1.5h-1a1.5,1.5,0,0,1-1.5-1.5v-2A1.5,1.5,0,0,1,639.5,3031Z" transform="translate(-628 -3023)"/>
</svg>
